<svg width="1280" height="640" xmlns="http://www.w3.org/2000/svg">
  <defs>
    <linearGradient id="bg" x1="0%" y1="0%" x2="100%" y2="100%">
      <stop offset="0%" style="stop-color:#0A0A0A"/>
      <stop offset="40%" style="stop-color:#1A0A00"/>
      <stop offset="100%" style="stop-color:#0A0A0A"/>
    </linearGradient>
    <linearGradient id="accent" x1="0%" y1="0%" x2="100%" y2="0%">
      <stop offset="0%" style="stop-color:#FF6B00"/>
      <stop offset="50%" style="stop-color:#FF9A4A"/>
      <stop offset="100%" style="stop-color:#FF6B00"/>
    </linearGradient>
    <linearGradient id="boxGrad" x1="0%" y1="0%" x2="0%" y2="100%">
      <stop offset="0%" style="stop-color:#FF6B00;stop-opacity:0.15"/>
      <stop offset="100%" style="stop-color:#FF6B00;stop-opacity:0.05"/>
    </linearGradient>
    <filter id="glow">
      <feGaussianBlur stdDeviation="3" result="coloredBlur"/>
      <feMerge>
        <feMergeNode in="coloredBlur"/>
        <feMergeNode in="SourceGraphic"/>
      </feMerge>
    </filter>
  </defs>

  <rect width="1280" height="640" fill="url(#bg)"/>

  <g opacity="0.04">
    <line x1="0" y1="0" x2="1280" y2="0" stroke="#FF6B00" stroke-width="0.5"/>
    <line x1="0" y1="40" x2="1280" y2="40" stroke="#FF6B00" stroke-width="0.5"/>
    <line x1="0" y1="80" x2="1280" y2="80" stroke="#FF6B00" stroke-width="0.5"/>
    <line x1="0" y1="120" x2="1280" y2="120" stroke="#FF6B00" stroke-width="0.5"/>
    <line x1="0" y1="160" x2="1280" y2="160" stroke="#FF6B00" stroke-width="0.5"/>
    <line x1="0" y1="200" x2="1280" y2="200" stroke="#FF6B00" stroke-width="0.5"/>
    <line x1="0" y1="240" x2="1280" y2="240" stroke="#FF6B00" stroke-width="0.5"/>
    <line x1="0" y1="280" x2="1280" y2="280" stroke="#FF6B00" stroke-width="0.5"/>
    <line x1="0" y1="320" x2="1280" y2="320" stroke="#FF6B00" stroke-width="0.5"/>
    <line x1="0" y1="360" x2="1280" y2="360" stroke="#FF6B00" stroke-width="0.5"/>
    <line x1="0" y1="400" x2="1280" y2="400" stroke="#FF6B00" stroke-width="0.5"/>
    <line x1="0" y1="440" x2="1280" y2="440" stroke="#FF6B00" stroke-width="0.5"/>
    <line x1="0" y1="480" x2="1280" y2="480" stroke="#FF6B00" stroke-width="0.5"/>
    <line x1="0" y1="520" x2="1280" y2="520" stroke="#FF6B00" stroke-width="0.5"/>
    <line x1="0" y1="560" x2="1280" y2="560" stroke="#FF6B00" stroke-width="0.5"/>
    <line x1="0" y1="600" x2="1280" y2="600" stroke="#FF6B00" stroke-width="0.5"/>
    <line x1="0" y1="640" x2="1280" y2="640" stroke="#FF6B00" stroke-width="0.5"/>
    <line x1="0" y1="0" x2="0" y2="640" stroke="#FF6B00" stroke-width="0.5"/>
    <line x1="40" y1="0" x2="40" y2="640" stroke="#FF6B00" stroke-width="0.5"/>
    <line x1="80" y1="0" x2="80" y2="640" stroke="#FF6B00" stroke-width="0.5"/>
    <line x1="120" y1="0" x2="120" y2="640" stroke="#FF6B00" stroke-width="0.5"/>
    <line x1="160" y1="0" x2="160" y2="640" stroke="#FF6B00" stroke-width="0.5"/>
    <line x1="200" y1="0" x2="200" y2="640" stroke="#FF6B00" stroke-width="0.5"/>
    <line x1="240" y1="0" x2="240" y2="640" stroke="#FF6B00" stroke-width="0.5"/>
    <line x1="280" y1="0" x2="280" y2="640" stroke="#FF6B00" stroke-width="0.5"/>
    <line x1="320" y1="0" x2="320" y2="640" stroke="#FF6B00" stroke-width="0.5"/>
    <line x1="360" y1="0" x2="360" y2="640" stroke="#FF6B00" stroke-width="0.5"/>
    <line x1="400" y1="0" x2="400" y2="640" stroke="#FF6B00" stroke-width="0.5"/>
    <line x1="440" y1="0" x2="440" y2="640" stroke="#FF6B00" stroke-width="0.5"/>
    <line x1="480" y1="0" x2="480" y2="640" stroke="#FF6B00" stroke-width="0.5"/>
    <line x1="520" y1="0" x2="520" y2="640" stroke="#FF6B00" stroke-width="0.5"/>
    <line x1="560" y1="0" x2="560" y2="640" stroke="#FF6B00" stroke-width="0.5"/>
    <line x1="600" y1="0" x2="600" y2="640" stroke="#FF6B00" stroke-width="0.5"/>
    <line x1="640" y1="0" x2="640" y2="640" stroke="#FF6B00" stroke-width="0.5"/>
    <line x1="680" y1="0" x2="680" y2="640" stroke="#FF6B00" stroke-width="0.5"/>
    <line x1="720" y1="0" x2="720" y2="640" stroke="#FF6B00" stroke-width="0.5"/>
    <line x1="760" y1="0" x2="760" y2="640" stroke="#FF6B00" stroke-width="0.5"/>
    <line x1="800" y1="0" x2="800" y2="640" stroke="#FF6B00" stroke-width="0.5"/>
    <line x1="840" y1="0" x2="840" y2="640" stroke="#FF6B00" stroke-width="0.5"/>
    <line x1="880" y1="0" x2="880" y2="640" stroke="#FF6B00" stroke-width="0.5"/>
    <line x1="920" y1="0" x2="920" y2="640" stroke="#FF6B00" stroke-width="0.5"/>
    <line x1="960" y1="0" x2="960" y2="640" stroke="#FF6B00" stroke-width="0.5"/>
    <line x1="1000" y1="0" x2="1000" y2="640" stroke="#FF6B00" stroke-width="0.5"/>
    <line x1="1040" y1="0" x2="1040" y2="640" stroke="#FF6B00" stroke-width="0.5"/>
    <line x1="1080" y1="0" x2="1080" y2="640" stroke="#FF6B00" stroke-width="0.5"/>
    <line x1="1120" y1="0" x2="1120" y2="640" stroke="#FF6B00" stroke-width="0.5"/>
    <line x1="1160" y1="0" x2="1160" y2="640" stroke="#FF6B00" stroke-width="0.5"/>
    <line x1="1200" y1="0" x2="1200" y2="640" stroke="#FF6B00" stroke-width="0.5"/>
    <line x1="1240" y1="0" x2="1240" y2="640" stroke="#FF6B00" stroke-width="0.5"/>
    <line x1="1280" y1="0" x2="1280" y2="640" stroke="#FF6B00" stroke-width="0.5"/>
  </g>

  <rect x="60" y="50" width="1160" height="540" rx="12" fill="none" stroke="#FF6B00" stroke-width="2" opacity="0.6"/>
  <rect x="62" y="52" width="1156" height="38" rx="10" fill="url(#boxGrad)"/>

  <circle cx="86" cy="71" r="5" fill="#FF5F56" opacity="0.8"/>
  <circle cx="108" cy="71" r="5" fill="#FFBD2E" opacity="0.8"/>
  <circle cx="130" cy="71" r="5" fill="#27C93F" opacity="0.8"/>

  <text x="155" y="76" fill="#FF6B00" font-family="monospace" font-size="11" opacity="0.6">luiz199@datamind:~$ ./setup_profile.sh</text>

  <text x="640" y="170" fill="#FFFFFF" font-family="monospace" font-size="52" font-weight="bold" text-anchor="middle" filter="url(#glow)">LUIZ HENRIQUE</text>
  <text x="640" y="210" fill="url(#accent)" font-family="monospace" font-size="20" text-anchor="middle" font-weight="bold">Data &amp; AI Engineer | Full-Stack Developer</text>
  <text x="640" y="240" fill="#888888" font-family="monospace" font-size="15" text-anchor="middle">B.Sc. Mathematics &amp; Computer Science</text>

  <line x1="280" y1="265" x2="1000" y2="265" stroke="url(#accent)" stroke-width="1" opacity="0.4"/>

  <rect x="120" y="290" width="310" height="90" rx="8" fill="url(#boxGrad)" stroke="#FF6B00" stroke-width="1" opacity="0.5"/>
  <text x="275" y="322" fill="#FF6B00" font-family="monospace" font-size="12" text-anchor="middle" font-weight="bold">EDUCATION</text>
  <text x="275" y="342" fill="#CCCCCC" font-family="monospace" font-size="11" text-anchor="middle">B.Sc. Mathematics &amp; Computer Science</text>
  <text x="275" y="358" fill="#CCCCCC" font-family="monospace" font-size="11" text-anchor="middle">MBA Data Warehouse &amp; Business Intelligence</text>

  <rect x="485" y="290" width="310" height="90" rx="8" fill="url(#boxGrad)" stroke="#FF6B00" stroke-width="1" opacity="0.5"/>
  <text x="640" y="322" fill="#FF6B00" font-family="monospace" font-size="12" text-anchor="middle" font-weight="bold">EXPERTISE</text>
  <text x="640" y="342" fill="#CCCCCC" font-family="monospace" font-size="11" text-anchor="middle">Artificial Intelligence &amp; Machine Learning</text>
  <text x="640" y="358" fill="#CCCCCC" font-family="monospace" font-size="11" text-anchor="middle">Data Engineering · Cloud · Full-Stack</text>

  <rect x="850" y="290" width="310" height="90" rx="8" fill="url(#boxGrad)" stroke="#FF6B00" stroke-width="1" opacity="0.5"/>
  <text x="1005" y="322" fill="#FF6B00" font-family="monospace" font-size="12" text-anchor="middle" font-weight="bold">LOCATION</text>
  <text x="1005" y="344" fill="#CCCCCC" font-family="monospace" font-size="11" text-anchor="middle">Rio Branco, AC</text>
  <text x="1005" y="362" fill="#CCCCCC" font-family="monospace" font-size="11" text-anchor="middle">Brazil · GMT-5</text>

  <text x="640" y="425" fill="#666666" font-family="monospace" font-size="13" text-anchor="middle" font-style="italic">"First, solve the problem. Then, write the code."</text>

  <text x="640" y="460" fill="#444444" font-family="monospace" font-size="10" text-anchor="middle">Next.js · React · TypeScript · Python · Node.js · NestJS · Tailwind · MongoDB</text>
  <text x="640" y="476" fill="#444444" font-family="monospace" font-size="10" text-anchor="middle">Docker · AWS · Cloud · AI/ML · Data Engineering · Automation</text>

  <path d="M0,500 Q160,470 320,500 Q480,530 640,500 Q800,470 960,500 Q1120,530 1280,500 L1280,640 L0,640 Z" fill="#FF6B00" opacity="0.08"/>
  <path d="M0,520 Q160,500 320,520 Q480,540 640,520 Q800,500 960,520 Q1120,540 1280,520 L1280,640 L0,640 Z" fill="#FF6B00" opacity="0.05"/>
  <path d="M0,540 Q160,520 320,540 Q480,560 640,540 Q800,520 960,540 Q1120,560 1280,540 L1280,640 L0,640 Z" fill="#FF6B00" opacity="0.03"/>
</svg>
