<svg width="1280" height="640" xmlns="http://www.w3.org/2000/svg">
  <defs>
    <linearGradient id="bg" x1="0%" y1="0%" x2="100%" y2="100%">
      <stop offset="0%" style="stop-color:#0A0A0A"/>
      <stop offset="50%" style="stop-color:#1A0A00"/>
      <stop offset="100%" style="stop-color:#0A0A0A"/>
    </linearGradient>
    <linearGradient id="accent" x1="0%" y1="0%" x2="100%" y2="0%">
      <stop offset="0%" style="stop-color:#FF6B00"/>
      <stop offset="100%" style="stop-color:#FF8C00"/>
    </linearGradient>
  </defs>

  <!-- Background -->
  <rect width="1280" height="640" fill="url(#bg)"/>

  <!-- Grid pattern -->
  <g opacity="0.05">
    <line x1="0" y1="0" x2="1280" y2="0" stroke="#FF6B00" stroke-width="0.5"/>
    <line x1="0" y1="40" x2="1280" y2="40" stroke="#FF6B00" stroke-width="0.5"/>
    <line x1="0" y1="80" x2="1280" y2="80" stroke="#FF6B00" stroke-width="0.5"/>
    <line x1="0" y1="120" x2="1280" y2="120" stroke="#FF6B00" stroke-width="0.5"/>
    <line x1="0" y1="160" x2="1280" y2="160" stroke="#FF6B00" stroke-width="0.5"/>
    <line x1="0" y1="200" x2="1280" y2="200" stroke="#FF6B00" stroke-width="0.5"/>
    <line x1="0" y1="240" x2="1280" y2="240" stroke="#FF6B00" stroke-width="0.5"/>
    <line x1="0" y1="280" x2="1280" y2="280" stroke="#FF6B00" stroke-width="0.5"/>
    <line x1="0" y1="320" x2="1280" y2="320" stroke="#FF6B00" stroke-width="0.5"/>
    <line x1="0" y1="360" x2="1280" y2="360" stroke="#FF6B00" stroke-width="0.5"/>
    <line x1="0" y1="400" x2="1280" y2="400" stroke="#FF6B00" stroke-width="0.5"/>
    <line x1="0" y1="440" x2="1280" y2="440" stroke="#FF6B00" stroke-width="0.5"/>
    <line x1="0" y1="480" x2="1280" y2="480" stroke="#FF6B00" stroke-width="0.5"/>
    <line x1="0" y1="520" x2="1280" y2="520" stroke="#FF6B00" stroke-width="0.5"/>
    <line x1="0" y1="560" x2="1280" y2="560" stroke="#FF6B00" stroke-width="0.5"/>
    <line x1="0" y1="600" x2="1280" y2="600" stroke="#FF6B00" stroke-width="0.5"/>
    <line x1="0" y1="640" x2="1280" y2="640" stroke="#FF6B00" stroke-width="0.5"/>
    <line x1="0" y1="0" x2="0" y2="640" stroke="#FF6B00" stroke-width="0.5"/>
    <line x1="40" y1="0" x2="40" y2="640" stroke="#FF6B00" stroke-width="0.5"/>
    <line x1="80" y1="0" x2="80" y2="640" stroke="#FF6B00" stroke-width="0.5"/>
    <line x1="120" y1="0" x2="120" y2="640" stroke="#FF6B00" stroke-width="0.5"/>
    <line x1="160" y1="0" x2="160" y2="640" stroke="#FF6B00" stroke-width="0.5"/>
    <line x1="200" y1="0" x2="200" y2="640" stroke="#FF6B00" stroke-width="0.5"/>
    <line x1="240" y1="0" x2="240" y2="640" stroke="#FF6B00" stroke-width="0.5"/>
    <line x1="280" y1="0" x2="280" y2="640" stroke="#FF6B00" stroke-width="0.5"/>
    <line x1="320" y1="0" x2="320" y2="640" stroke="#FF6B00" stroke-width="0.5"/>
    <line x1="360" y1="0" x2="360" y2="640" stroke="#FF6B00" stroke-width="0.5"/>
    <line x1="400" y1="0" x2="400" y2="640" stroke="#FF6B00" stroke-width="0.5"/>
    <line x1="440" y1="0" x2="440" y2="640" stroke="#FF6B00" stroke-width="0.5"/>
    <line x1="480" y1="0" x2="480" y2="640" stroke="#FF6B00" stroke-width="0.5"/>
    <line x1="520" y1="0" x2="520" y2="640" stroke="#FF6B00" stroke-width="0.5"/>
    <line x1="560" y1="0" x2="560" y2="640" stroke="#FF6B00" stroke-width="0.5"/>
    <line x1="600" y1="0" x2="600" y2="640" stroke="#FF6B00" stroke-width="0.5"/>
    <line x1="640" y1="0" x2="640" y2="640" stroke="#FF6B00" stroke-width="0.5"/>
    <line x1="680" y1="0" x2="680" y2="640" stroke="#FF6B00" stroke-width="0.5"/>
    <line x1="720" y1="0" x2="720" y2="640" stroke="#FF6B00" stroke-width="0.5"/>
    <line x1="760" y1="0" x2="760" y2="640" stroke="#FF6B00" stroke-width="0.5"/>
    <line x1="800" y1="0" x2="800" y2="640" stroke="#FF6B00" stroke-width="0.5"/>
    <line x1="840" y1="0" x2="840" y2="640" stroke="#FF6B00" stroke-width="0.5"/>
    <line x1="880" y1="0" x2="880" y2="640" stroke="#FF6B00" stroke-width="0.5"/>
    <line x1="920" y1="0" x2="920" y2="640" stroke="#FF6B00" stroke-width="0.5"/>
    <line x1="960" y1="0" x2="960" y2="640" stroke="#FF6B00" stroke-width="0.5"/>
    <line x1="1000" y1="0" x2="1000" y2="640" stroke="#FF6B00" stroke-width="0.5"/>
    <line x1="1040" y1="0" x2="1040" y2="640" stroke="#FF6B00" stroke-width="0.5"/>
    <line x1="1080" y1="0" x2="1080" y2="640" stroke="#FF6B00" stroke-width="0.5"/>
    <line x1="1120" y1="0" x2="1120" y2="640" stroke="#FF6B00" stroke-width="0.5"/>
    <line x1="1160" y1="0" x2="1160" y2="640" stroke="#FF6B00" stroke-width="0.5"/>
    <line x1="1200" y1="0" x2="1200" y2="640" stroke="#FF6B00" stroke-width="0.5"/>
    <line x1="1240" y1="0" x2="1240" y2="640" stroke="#FF6B00" stroke-width="0.5"/>
    <line x1="1280" y1="0" x2="1280" y2="640" stroke="#FF6B00" stroke-width="0.5"/>
  </g>

  <!-- Terminal box -->
  <rect x="60" y="60" width="1160" height="520" rx="12" fill="none" stroke="#FF6B00" stroke-width="3" opacity="0.8"/>
  <rect x="60" y="60" width="1160" height="40" rx="12" fill="#FF6B00" opacity="0.15"/>
  <rect x="60" y="88" width="1160" height="12" fill="#FF6B00" opacity="0.15"/>
  <circle cx="84" cy="80" r="6" fill="#FF6B00" opacity="0.6"/>
  <circle cx="108" cy="80" r="6" fill="#FF6B00" opacity="0.4"/>
  <circle cx="132" cy="80" r="6" fill="#FF6B00" opacity="0.2"/>
  <text x="120" y="86" fill="#FF6B00" font-family="monospace" font-size="12" opacity="0.5">luiz199@datamind:~$</text>

  <!-- Main title -->
  <text x="640" y="200" fill="#FFFFFF" font-family="monospace" font-size="48" font-weight="bold" text-anchor="middle">LUIZ HENRIQUE</text>
  <text x="640" y="240" fill="url(#accent)" font-family="monospace" font-size="20" text-anchor="middle">Data &amp; AI Engineer | Full-Stack Developer</text>
  <text x="640" y="270" fill="#888888" font-family="monospace" font-size="16" text-anchor="middle">Computer Science Graduate | Mathematics</text>

  <!-- Decorative line -->
  <line x1="320" y1="295" x2="960" y2="295" stroke="url(#accent)" stroke-width="1" opacity="0.5"/>

  <!-- Information boxes -->
  <rect x="160" y="320" width="280" height="80" rx="6" fill="none" stroke="#FF6B00" stroke-width="1" opacity="0.5"/>
  <text x="300" y="348" fill="#FF6B00" font-family="monospace" font-size="12" text-anchor="middle" font-weight="bold">EDUCATION</text>
  <text x="300" y="368" fill="#CCCCCC" font-family="monospace" font-size="11" text-anchor="middle">B.Sc. Mathematics &amp; CS</text>
  <text x="300" y="385" fill="#CCCCCC" font-family="monospace" font-size="11" text-anchor="middle">MBA Data Warehouse &amp; BI</text>

  <rect x="500" y="320" width="280" height="80" rx="6" fill="none" stroke="#FF6B00" stroke-width="1" opacity="0.5"/>
  <text x="640" y="348" fill="#FF6B00" font-family="monospace" font-size="12" text-anchor="middle" font-weight="bold">EXPERTISE</text>
  <text x="640" y="368" fill="#CCCCCC" font-family="monospace" font-size="11" text-anchor="middle">AI · Data Engineering · Cloud</text>
  <text x="640" y="385" fill="#CCCCCC" font-family="monospace" font-size="11" text-anchor="middle">Full-Stack · Process Automation</text>

  <rect x="840" y="320" width="280" height="80" rx="6" fill="none" stroke="#FF6B00" stroke-width="1" opacity="0.5"/>
  <text x="980" y="348" fill="#FF6B00" font-family="monospace" font-size="12" text-anchor="middle" font-weight="bold">LOCATION</text>
  <text x="980" y="370" fill="#CCCCCC" font-family="monospace" font-size="11" text-anchor="middle">Rio Branco, AC</text>
  <text x="980" y="387" fill="#CCCCCC" font-family="monospace" font-size="11" text-anchor="middle">Brazil</text>

  <!-- Bottom text -->
  <text x="640" y="440" fill="#666666" font-family="monospace" font-size="13" text-anchor="middle">"First, solve the problem. Then, write the code."</text>

  <!-- Tech stack -->
  <text x="640" y="480" fill="#444444" font-family="monospace" font-size="10" text-anchor="middle">Next.js · React · TypeScript · Python · Node.js · NestJS · Tailwind · MongoDB · AI</text>

  <!-- Wave at bottom -->
  <path d="M0,530 Q160,500 320,530 Q480,560 640,530 Q800,500 960,530 Q1120,560 1280,530 L1280,640 L0,640 Z" fill="#FF6B00" opacity="0.08"/>
  <path d="M0,550 Q160,530 320,550 Q480,570 640,550 Q800,530 960,550 Q1120,570 1280,550 L1280,640 L0,640 Z" fill="#FF6B00" opacity="0.05"/>
</svg>
